<?xml version="1.0"?>
<svg xmlns="http://www.w3.org/2000/svg" id="Layer_1" enable-background="new 0 0 512 512" height="512px" viewBox="0 0 512 512" width="512px"><g><g><path d="m453.19 60.25h-38.251l-33.251-53.2c-2.74-4.386-7.547-7.05-12.719-7.05h-225.938c-5.172 0-9.979 2.664-12.72 7.05l-33.251 53.2h-38.25c-32.428 0-58.81 26.382-58.81 58.811v334.129c0 32.428 26.382 58.81 58.81 58.81h394.38c32.428 0 58.81-26.382 58.81-58.811v-334.128c0-32.429-26.382-58.811-58.81-58.811zm-329.339 13.74 22.969-36.75 85.169 68.135-49.19 39.353zm264.298 0-58.947 70.737-49.19-39.353 85.168-68.134zm-132.149 12.176-70.207-56.166h140.414zm-11.891 124.584h23.782l32.423 220.723-44.314 44.314-44.314-44.314zm24.593-30h-25.404l-8.358-39.318 21.06-16.848 21.06 16.848zm-238.702 272.439v-334.128c0-15.886 12.924-28.811 28.81-28.811h39.539l70.815 84.978c5.229 6.275 14.516 7.214 20.894 2.11l18.669-14.936 7.192 33.832-35.01 238.336c-.689 4.691.881 9.433 4.234 12.786l34.644 34.644h-160.977c-15.886 0-28.81-12.925-28.81-28.811zm452 0c0 15.886-12.924 28.811-28.81 28.811h-160.977l34.644-34.644c3.354-3.354 4.923-8.095 4.234-12.786l-35.01-238.336 7.192-33.832 18.669 14.936c2.764 2.211 6.073 3.287 9.362 3.287 4.302 0 8.568-1.842 11.532-5.397l70.815-84.978h39.539c15.886 0 28.81 12.925 28.81 28.811z" data-original="#000000" class="active-path" data-old_color="#000000" fill="#FC8181"/><path d="m436.75 241h-80.75c-8.284 0-15 6.716-15 15s6.716 15 15 15h80.75c8.284 0 15-6.716 15-15s-6.716-15-15-15z" data-original="#000000" class="active-path" data-old_color="#000000" fill="#FC8181"/></g></g> </svg>
