<?xml version="1.0"?>
<svg xmlns="http://www.w3.org/2000/svg" height="512px" viewBox="-121 0 512 512" width="512px"><g><path d="m135 512c74.4375 0 135-61.007812 135-136 0-62.460938-30.605469-124.101562-58.789062-167.632812 7.382812-11.4375 9.53125-26.078126 4.527343-39.828126-2-5.5-4.980469-10.363281-8.652343-14.488281 16.066406-11.308593 23.484374-32.476562 16.320312-52.152343-6.773438-18.609376-24.625-30.039063-43.40625-29.585938v-72.3125h-90v102.566406l-8.84375 3.214844c-23.3125 8.488281-35.378906 34.363281-26.894531 57.679688 2 5.5 4.976562 10.363281 8.648437 14.492187-15.496094 10.910156-23.238281 31.316406-16.734375 50.902344-30.640625 52.574219-46.175781 102.046875-46.175781 147.144531 0 74.992188 60.5625 136 135 136zm0-30c-57.898438 0-105-47.550781-105-106 0-37.007812 12.292969-78.066406 36.550781-122.246094 6.75 3.851563 14.457031 5.960938 22.375 5.960938 3.125 0 6.285157-.332032 9.429688-1.011719-20.628907 35.355469-38.355469 77.355469-38.355469 117.296875 0 41.414062 33.578125 76 75 76 41.414062 0 75-34.578125 75-76 0-48.644531-25.921875-99.929688-51.535156-138.726562l28.90625-10.523438c25.523437 39.835938 52.628906 94.929688 52.628906 149.25 0 58.449219-47.101562 106-105 106zm-51.253906-281.382812c10.082031-3.667969 77.515625-28.210938 84.582031-30.785157 7.785156-2.828125 16.394531 1.210938 19.21875 8.96875 2.828125 7.769531-1.191406 16.394531-8.964844 19.226563.035157-.101563-79.308593 27.59375-84.570312 30.78125-7.777344 2.828125-16.398438-1.195313-19.226563-8.964844-2.835937-7.789062 1.171875-16.390625 8.960938-19.226562zm51.324218 55.730468c20.523438 31.660156 44.929688 78.066406 44.929688 119.652344 0 24.933594-20.605469 46-45 46s-45-21.066406-45-46c0-41.335938 24.496094-87.863281 45.070312-119.652344zm-15.070312-226.347656h30v50.726562l-30 10.917969zm-28.582031 103.972656 84.570312-30.78125c7.777344-2.828125 16.398438 1.195313 19.226563 8.964844 2.835937 7.789062-1.171875 16.390625-8.960938 19.226562-20.867187 7.59375-78.449218 28.550782-84.578125 30.78125-7.777343 2.828126-16.394531-1.195312-19.222656-8.964843s1.191406-16.394531 8.964844-19.226563zm0 0" data-original="#000000" class="active-path" data-old_color="#000000" fill="#FC8181"/></g> </svg>
